<?xml version="1.0" encoding="utf-8"?>
<!-- Generator: Adobe Illustrator 16.0.0, SVG Export Plug-In . SVG Version: 6.00 Build 0)  -->
<!DOCTYPE svg PUBLIC "-//W3C//DTD SVG 1.1//EN" "http://www.w3.org/Graphics/SVG/1.1/DTD/svg11.dtd">
<svg version="1.1" id="Capa_1" xmlns="http://www.w3.org/2000/svg" xmlns:xlink="http://www.w3.org/1999/xlink" x="0px" y="0px"
	 width="245.933px" height="320px" viewBox="37.033 80 245.933 320" enable-background="new 37.033 80 245.933 320"
	 xml:space="preserve">
<g id="XMLID_88_">
	<g id="XMLID_91_">
		<path id="XMLID_94_" fill="#ED3328" d="M103.306,207.124L84.75,221.81H60.604c-13.029,0-23.571,10.547-23.571,23.574
			c0,13.024,10.543,23.575,23.571,23.575h32.364c5.305,0,10.47-1.787,14.628-5.089l13.107-10.38v34.232l-31.162,8.234
			c-6.921,1.828-12.801,6.396-16.285,12.649c-3.484,6.255-4.272,13.657-2.185,20.505L87.58,383.25
			c3.083,10.178,12.438,16.75,22.558,16.75c2.263,0,4.556-0.33,6.837-1.026c12.474-3.767,19.51-16.937,15.733-29.399l-10.163-33.571
			l37.446-9.852l37.462,9.852l-10.168,33.571c-3.771,12.465,3.266,25.633,15.727,29.399c2.281,0.696,4.587,1.026,6.85,1.026
			c10.109,0,19.463-6.572,22.547-16.75l16.474-54.205c2.082-6.85,1.286-14.252-2.204-20.504c-3.49-6.25-9.374-10.813-16.299-12.634
			L183.84,283.66L103.306,207.124z"/>
	</g>
	<path id="XMLID_90_" fill="#ED3328" d="M259.395,221.81h-24.156l-41.767-33.082c-0.978-0.77-2.009-1.403-3.06-1.991
		c-9.125,4.866-19.372,7.885-30.421,7.885c-11.007,0-21.242-3.007-30.349-7.851c-0.103,0.056-0.218,0.067-0.321,0.131l70.601,67.089
		l12.469,9.877c4.175,3.303,9.336,5.09,14.64,5.09h32.364c13.017,0,23.571-10.551,23.571-23.575
		C282.967,232.357,272.412,221.81,259.395,221.81z"/>
	<path id="XMLID_89_" fill="#ED3328" d="M159.991,178.9c27.319,0,49.466-22.134,49.466-49.444c0-27.312-22.147-49.456-49.466-49.456
		c-27.301,0-49.449,22.144-49.449,49.456C110.542,156.767,132.69,178.9,159.991,178.9z"/>
</g>
</svg>
