<?xml version="1.0" encoding="utf-8"?>
<!-- Generator: Adobe Illustrator 16.0.0, SVG Export Plug-In . SVG Version: 6.00 Build 0)  -->
<!DOCTYPE svg PUBLIC "-//W3C//DTD SVG 1.1//EN" "http://www.w3.org/Graphics/SVG/1.1/DTD/svg11.dtd">
<svg version="1.1" id="Layer_1" xmlns="http://www.w3.org/2000/svg" xmlns:xlink="http://www.w3.org/1999/xlink" x="0px" y="0px"
	 width="163.2px" height="300.8px" viewBox="0 0 163.2 300.8" enable-background="new 0 0 163.2 300.8" xml:space="preserve">
<path fill="#EE3329" d="M142.4,0H20.8C9.28,0,0,9.28,0,20.8V280C0,291.52,9.28,300.8,20.8,300.8h121.6
	c11.521,0,20.8-9.28,20.8-20.801V20.8C163.2,9.28,153.92,0,142.4,0z M75.2,25.6H88c4.479,0,8,3.52,8,8s-3.521,8-8,8H75.2
	c-4.48,0-8-3.52-8-8S70.72,25.6,75.2,25.6z M94.4,272H68.8c-4.48,0-8-3.52-8-8c0-4.479,3.52-8,8-8h25.6c4.479,0,8,3.521,8,8
	C102.4,268.48,98.879,272,94.4,272z M147.2,236.8H16V57.6h131.2V236.8z"/>
</svg>
