<?xml version="1.0" encoding="utf-8"?>
<!-- Generator: Adobe Illustrator 16.0.0, SVG Export Plug-In . SVG Version: 6.00 Build 0)  -->
<!DOCTYPE svg PUBLIC "-//W3C//DTD SVG 1.1//EN" "http://www.w3.org/Graphics/SVG/1.1/DTD/svg11.dtd">
<svg version="1.1" id="Layer_1" xmlns="http://www.w3.org/2000/svg" xmlns:xlink="http://www.w3.org/1999/xlink" x="0px" y="0px"
	 width="204.8px" height="268.801px" viewBox="0 0 204.8 268.801" enable-background="new 0 0 204.8 268.801" xml:space="preserve">
<g transform="translate(0,-952.36218)">
	<path fill="#EE3329" d="M102.301,952.363c-33.582,0-60.7,27.87-60.7,62.4c0,7.93,2.288,18.026,4.9,25l55.899,117.4l55.9-117.4
		c2.627-6.977,4.9-17.067,4.9-25C163.201,980.232,135.882,952.362,102.301,952.363L102.301,952.363z M102.4,981.162
		c17.598,0,32,14.403,32,32s-14.402,32-32,32s-32-14.403-32-32S84.802,981.162,102.4,981.162z M102.4,993.963
		c-10.68,0-19.2,8.52-19.2,19.2s8.521,19.2,19.2,19.2s19.2-8.521,19.2-19.2S113.08,993.963,102.4,993.963z M25.6,1093.163l-25.6,128
		h204.8l-25.601-128H140c-12.537,26.266-25.02,52.556-37.6,78.8c-12.579-26.245-25.075-52.529-37.6-78.8H25.6z"/>
</g>
</svg>
