<?xml version="1.0" encoding="utf-8"?>
<!-- Generator: Adobe Illustrator 16.0.0, SVG Export Plug-In . SVG Version: 6.00 Build 0)  -->
<!DOCTYPE svg PUBLIC "-//W3C//DTD SVG 1.1//EN" "http://www.w3.org/Graphics/SVG/1.1/DTD/svg11.dtd">
<svg version="1.1" id="Layer_1" xmlns="http://www.w3.org/2000/svg" xmlns:xlink="http://www.w3.org/1999/xlink" x="0px" y="0px"
	 width="320px" height="234.667px" viewBox="0 0 320 234.667" enable-background="new 0 0 320 234.667" xml:space="preserve">
<g transform="translate(-330 -80)">
	<g>
		<path fill="#ED3529" d="M628.667,272h10.666v-10.666h-10.666v-32h10.666v-10.666h-10.666v-32h10.666V176h-10.666v-32h10.666
			v-10.667H618v-10.667h-74.666v10.667h-10.667v-32h10.667V80H436.667v21.333h10.667v32h-10.667v-10.667H362v10.667h-21.333V144
			h10.667v32h-10.667v10.667h10.667v32h-10.667v10.666h10.667v32h-10.667V272h10.667v32H330v10.668h320V304h-21.333V272z
			 M436.667,144v21.333H362V144H436.667z M436.667,186.667V208H362v-21.333H436.667z M436.667,229.333v21.334H362v-21.334H436.667z
			 M436.667,272v21.334H362V272H436.667z M543.334,272H618v21.334h-74.666V272z M618,250.667h-74.666v-21.334H618V250.667z M618,208
			h-74.666v-21.333H618V208z M618,144v21.333h-74.666V144H618z M522,304h-64v-32h64V304z M522,218.667v10.666v32h-64v-32v-10.666
			v-32h64V218.667z M522,144v32h-64v-32v-32h64V144z"/>
	</g>
</g>
</svg>
