<?xml version="1.0" encoding="utf-8"?>
<!-- Generator: Adobe Illustrator 16.0.0, SVG Export Plug-In . SVG Version: 6.00 Build 0)  -->
<!DOCTYPE svg PUBLIC "-//W3C//DTD SVG 1.1//EN" "http://www.w3.org/Graphics/SVG/1.1/DTD/svg11.dtd">
<svg version="1.1" id="Layer_1" xmlns="http://www.w3.org/2000/svg" xmlns:xlink="http://www.w3.org/1999/xlink" x="0px" y="0px"
	 width="320px" height="318.002px" viewBox="0 0 320 318.002" enable-background="new 0 0 320 318.002" xml:space="preserve">
<g transform="translate(-206.61245,-410.00239)">
	<path fill="#EE3329" d="M526.551,479.866h-76.974l-112.134-68.441v-1.422h-35.885v2.059l-57.761,67.806h-4.084v-10.378h-17.005
		c-8.896,0-16.096,7.232-16.096,16.127v23.177c0,8.896,7.2,16.127,16.096,16.127h17.005v-9.532h49.167v-6.505H276.99l6.626-6.626
		l5.265,5.265v-9.168l-0.636-0.728l0.636-0.635v-9.229l-5.265,5.266l-6.626-6.627h11.891v-6.505H252.33l49.229-57.79v48.26h-9.41
		v50.922h-12.557v21.815h12.194v0.485v97.67h-9.592v67.805h-8.986c-5.235,0-9.471,4.238-9.471,9.472
		c0,5.235,4.266,9.471,9.471,9.471h92.556c5.235,0,9.47-4.235,9.47-9.471c0-5.233-4.267-9.472-9.47-9.472h-8.986v-67.805h-9.623
		v-97.67v-0.485h12.194v-21.815h-12.285v-50.922h-9.622v-51.287l99.637,60.817h-86.717v2.875v3.63v5.538l3.782-3.782l9.47,9.5
		l-9.47,9.471l-3.782-3.782v5.537v3.691v2.814h86.354v7.806h11.952v47.02h-2.27l6.415,19.607h7.019v7.474
		c0,1.815,1.451,3.237,3.238,3.237c4.114,0,7.443,3.359,7.443,7.473c0,4.115-3.329,7.475-7.443,7.475
		c-4.115,0-7.443-3.359-7.443-7.475c0-1.815-1.483-3.237-3.237-3.237c-1.816,0-3.237,1.451-3.237,3.237
		c0,7.686,6.263,13.949,13.948,13.949c7.685,0,13.948-6.264,13.948-13.949c0-6.565-4.538-12.102-10.711-13.584v-4.6h7.02
		l6.414-19.607h-2.269v-47.02h11.952v-7.806h37.156v-35.522L526.551,479.866z M241.317,507.128l-1.604-1.603V489.73l1.604-1.603
		l9.5,9.5l-9.5,9.501V507.128z M255.417,502.227l6.656,6.657h-13.282L255.417,502.227z M248.76,486.372h13.283l-6.657,6.657
		L248.76,486.372L248.76,486.372z M269.486,507.128l-9.469-9.501l9.469-9.5l9.5,9.5L269.486,507.128z M340.651,633.421
		l-15.764-15.915l15.764-16.943V633.421z M315.871,568.822l-17.52,18.82v-36.521L315.871,568.822z M299.986,543.558h39.394
		l-19.092,20.483L299.986,543.558z M320.439,573.451l18.881,19.032l-19.032,20.394l-18.851-19.032L320.439,573.451L320.439,573.451z
		 M298.351,599.957l17.52,17.67l-17.52,18.819V599.957L298.351,599.957z M302.769,641.227l17.67-18.972l18.79,18.972H302.769z
		 M340.651,584.587l-15.764-15.916l15.764-16.944V584.587z M298.351,641.227L298.351,641.227L298.351,641.227L298.351,641.227z
		 M330.938,464.133l-6.868-6.839l6.868-6.868V464.133z M305.159,489.549h28.896v22.36h-28.896V489.549z M314.872,427.976
		l-6.838,6.869v-13.707L314.872,427.976z M312.632,416.508h13.707l-6.868,6.869L312.632,416.508L312.632,416.508z M319.501,432.544
		l10.075,10.076l-10.075,10.076l-10.076-10.076L319.501,432.544z M308.064,450.456l6.838,6.868l-6.838,6.838V450.456z
		 M311.028,470.366l8.442-8.442l8.441,8.442H311.028L311.028,470.366z M324.069,427.976l6.868-6.838v13.676L324.069,427.976
		L324.069,427.976z M471.118,570.184h-16.187v-47.02h16.187V570.184z M489.093,501.137l-3.511-3.479l9.5-9.5l9.501,9.5l-9.501,9.501
		l-5.688-5.719v-0.303h-0.305L489.093,501.137z M460.892,501.137l-3.479-3.479l9.5-9.5l9.471,9.5l-3.479,3.479H460.892
		L460.892,501.137z M436.687,501.137v3.994l-7.474-7.504l9.47-9.5l9.501,9.5l-3.479,3.48h-8.018V501.137z M502.556,486.371h13.313
		l-6.686,6.658L502.556,486.371L502.556,486.371z M481.013,493.058l-6.656-6.657h13.282L481.013,493.058z M452.814,493.058
		l-6.687-6.657h13.312L452.814,493.058z M424.583,493.058l-6.656-6.657h13.313L424.583,493.058z M420.015,497.627l-9.501,9.501
		l-9.501-9.501l9.501-9.5L420.015,497.627z M396.414,493.058l-6.657-6.657h13.284L396.414,493.058z M391.784,497.627l-9.471,9.501
		l-9.5-9.501l9.5-9.5L391.784,497.627z M396.414,502.226l6.657,6.657h-13.283L396.414,502.226z M424.583,502.226l6.657,6.657
		h-13.284L424.583,502.226L424.583,502.226z M509.183,502.226l6.655,6.657h-13.251L509.183,502.226z M513.812,497.627l6.233-6.232
		v12.466L513.812,497.627z M361.528,486.372h13.312l-6.656,6.657L361.528,486.372z M374.84,508.883h-13.251l6.657-6.657
		L374.84,508.883z"/>
</g>
</svg>
