<?xml version="1.0" encoding="utf-8"?>
<!-- Generator: Adobe Illustrator 16.0.0, SVG Export Plug-In . SVG Version: 6.00 Build 0)  -->
<!DOCTYPE svg PUBLIC "-//W3C//DTD SVG 1.1//EN" "http://www.w3.org/Graphics/SVG/1.1/DTD/svg11.dtd">
<svg version="1.1" id="Layer_1" xmlns="http://www.w3.org/2000/svg" xmlns:xlink="http://www.w3.org/1999/xlink" x="0px" y="0px"
	 width="133.071px" height="284.869px" viewBox="0 0 133.071 284.869" enable-background="new 0 0 133.071 284.869"
	 xml:space="preserve">
<g>
	<g>
		<path fill="#FFFFFF" d="M128.983,86.709c0.225-3.892-0.471-7.976-1.234-11.754c-1.704-8.426-5.746-16.052-11.147-22.666
			c-7.272-8.903-18.315-14.551-29.317-17.262c-7.782-1.918-15.96-2.595-23.961-2.472c-8.191,0.125-16.605,1.172-24.418,3.708
			C26.193,40.387,15.206,48.408,8.298,59.949c-5.367,8.968-7.815,19.477-8.254,29.84c-0.427,10.092,2.249,20.166,7.369,28.855
			c6.681,11.34,17.408,20.07,29.174,25.713c7.75,3.718,15.904,6.456,24.292,8.298c8.014,1.758,15.866,3.538,23.471,6.703
			c-0.871-0.367-1.742-0.735-2.613-1.103c5.74,2.423,11.212,5.442,16.156,9.245c-0.738-0.57-1.477-1.141-2.214-1.711
			c3.563,2.775,6.803,5.93,9.581,9.494c-0.57-0.738-1.141-1.477-1.711-2.214c2.387,3.104,4.394,6.47,5.931,10.073
			c-0.368-0.871-0.735-1.742-1.103-2.613c1.398,3.336,2.379,6.822,2.877,10.406c-0.131-0.97-0.261-1.939-0.391-2.908
			c0.58,4.386,0.375,8.861-0.205,13.236c0.131-0.969,0.261-1.938,0.391-2.907c-0.628,4.593-1.779,9.099-3.562,13.382
			c0.367-0.871,0.735-1.742,1.103-2.613c-1.465,3.46-3.33,6.722-5.626,9.698c0.57-0.737,1.14-1.476,1.71-2.214
			c-2.051,2.623-4.403,4.971-7.024,7.023c0.737-0.569,1.476-1.14,2.214-1.71c-3.035,2.339-6.358,4.233-9.881,5.737
			c0.871-0.368,1.742-0.736,2.613-1.104c-4.836,2.022-9.93,3.274-15.114,3.993c0.97-0.13,1.938-0.261,2.907-0.391
			c-8.029,1.064-16.263,0.993-24.288-0.085c0.969,0.131,1.938,0.261,2.907,0.391c-5.479-0.765-10.874-2.078-15.983-4.227
			c0.871,0.367,1.742,0.734,2.613,1.102c-3.457-1.479-6.731-3.328-9.722-5.611c0.738,0.57,1.476,1.141,2.213,1.711
			c-2.6-2.014-4.937-4.324-6.956-6.92c0.57,0.737,1.14,1.476,1.71,2.213c-2.04-2.655-3.717-5.558-5.021-8.641
			c0.367,0.871,0.735,1.742,1.103,2.612c-1.44-3.449-2.412-7.077-2.914-10.78c0.13,0.97,0.26,1.939,0.391,2.908
			c-0.271-2.044-0.472-4.164-0.325-6.229c0.424-5.954-5.296-10.938-10.938-10.938c-6.282,0-10.514,4.993-10.938,10.938
			c-0.273,3.84,0.408,7.9,1.125,11.629c1.609,8.369,5.609,15.922,10.928,22.497c7.207,8.909,18.214,14.548,29.147,17.342
			c7.757,1.982,15.93,2.716,23.922,2.698c8.2-0.018,16.637-0.996,24.483-3.443c12.764-3.98,23.782-11.982,30.752-23.472
			c5.436-8.961,7.902-19.491,8.411-29.875c0.494-10.081-2.079-20.087-7.112-28.819c-6.533-11.336-17.17-20.117-28.805-25.84
			c-7.802-3.837-16.075-6.65-24.551-8.548c-8.182-1.832-16.206-3.578-23.979-6.819c0.871,0.367,1.742,0.735,2.613,1.103
			c-5.728-2.422-11.186-5.44-16.114-9.246c0.738,0.57,1.476,1.14,2.213,1.71c-3.55-2.775-6.774-5.929-9.536-9.493
			c0.57,0.738,1.14,1.476,1.71,2.213c-2.375-3.105-4.366-6.472-5.89-10.073c0.368,0.871,0.735,1.742,1.103,2.613
			c-1.387-3.337-2.357-6.824-2.849-10.406c0.13,0.97,0.261,1.938,0.391,2.908c-0.564-4.311-0.375-8.705,0.187-13.006
			c-0.13,0.969-0.26,1.938-0.391,2.908c0.619-4.587,1.767-9.088,3.549-13.365c-0.367,0.871-0.735,1.742-1.103,2.613
			c1.466-3.46,3.337-6.722,5.635-9.698c-0.57,0.738-1.14,1.476-1.71,2.213c2.059-2.628,4.419-4.982,7.046-7.042
			c-0.738,0.57-1.476,1.14-2.214,1.71c3.144-2.427,6.595-4.381,10.251-5.924c-0.871,0.367-1.742,0.735-2.613,1.102
			c4.895-2.024,10.042-3.28,15.281-4.009c-0.969,0.13-1.938,0.26-2.907,0.391c7.87-1.047,15.933-1.045,23.807-0.028
			c-0.969-0.13-1.938-0.26-2.908-0.391c5.457,0.735,10.828,2.029,15.912,4.166c-0.871-0.367-1.742-0.735-2.612-1.103
			c3.453,1.478,6.722,3.331,9.704,5.617c-0.737-0.57-1.476-1.14-2.213-1.71c2.605,2.026,4.945,4.352,6.969,6.96
			c-0.57-0.738-1.141-1.476-1.711-2.213c2.053,2.68,3.742,5.606,5.063,8.711c-0.367-0.871-0.734-1.742-1.102-2.613
			c1.494,3.561,2.504,7.31,3.027,11.135c-0.131-0.969-0.262-1.938-0.392-2.908c0.259,1.94,0.459,3.945,0.347,5.907
			c-0.344,5.958,5.234,10.938,10.938,10.938C124.268,97.646,128.642,92.659,128.983,86.709L128.983,86.709z"/>
	</g>
</g>
<g>
	<g>
		<path fill="#FFFFFF" d="M77.269,43.479c0-10.847,0-21.695,0-32.542C77.269,4.975,72.293,0,66.331,0
			c-5.962,0-10.938,4.975-10.938,10.938c0,10.847,0,21.695,0,32.542c0,5.962,4.976,10.938,10.938,10.938
			C72.293,54.417,77.269,49.441,77.269,43.479L77.269,43.479z"/>
	</g>
</g>
<g>
	<g>
		<path fill="#FFFFFF" d="M77.269,273.932c0-10.698,0-21.396,0-32.096c0-5.963-4.976-10.938-10.938-10.938
			c-5.962,0-10.938,4.975-10.938,10.938c0,10.699,0,21.397,0,32.096c0,5.963,4.976,10.938,10.938,10.938
			C72.293,284.869,77.269,279.895,77.269,273.932L77.269,273.932z"/>
	</g>
</g>
</svg>
