<?xml version="1.0" encoding="utf-8"?>
<!-- Generator: Adobe Illustrator 16.0.0, SVG Export Plug-In . SVG Version: 6.00 Build 0)  -->
<!DOCTYPE svg PUBLIC "-//W3C//DTD SVG 1.1//EN" "http://www.w3.org/Graphics/SVG/1.1/DTD/svg11.dtd">
<svg version="1.1" id="Layer_1" xmlns="http://www.w3.org/2000/svg" xmlns:xlink="http://www.w3.org/1999/xlink" x="0px" y="0px"
	 width="320px" height="216.402px" viewBox="0 0 320 216.402" enable-background="new 0 0 320 216.402" xml:space="preserve">
<g transform="translate(-71.146,-382.7235)">
	<path fill="#EF382A" d="M274.261,382.724c-64.324,0-116.423,13.073-116.423,29.205c0,0.707,0.06,1.397,0.328,2.104
		c24.484,0.101,46.989,9.188,64.198,24.14c15.661,2.021,33.274,3.091,51.897,3.091c64.324,0,116.489-13.205,116.489-29.336
		C390.75,395.797,338.551,382.724,274.261,382.724L274.261,382.724z M157.838,425.807c-47.788,0-86.692,38.871-86.692,86.693
		c0,47.788,38.871,86.626,86.692,86.626c47.822,0,86.759-38.838,86.759-86.626C244.597,464.678,205.66,425.807,157.838,425.807
		L157.838,425.807z M391.146,428.702c-0.066,16.131-52.232,29.27-116.555,29.27c-12.494,0-24.566-0.472-35.848-1.381
		c5.186,7.409,9.467,15.611,12.43,24.468c8.824,0.371,16.816,0.461,23.418,0.461c29.096,0,84.965-2.455,116.555-19.798V428.702z
		 M157.838,437.515c41.322,0,74.919,33.629,74.919,74.985c0,41.321-33.597,74.919-74.919,74.919
		c-41.322,0-74.919-33.598-74.919-74.919C82.919,471.144,116.516,437.515,157.838,437.515L157.838,437.515z M149.09,455.867v13.484
		c-15.188,2.829-24.008,12.661-24.008,25.324c0,13.773,10.398,20.896,25.587,25.981c10.675,3.536,15.194,6.978,15.194,12.366
		c0,5.557-5.531,8.813-13.748,8.813c-9.228,0-17.619-2.981-23.614-6.249l-4.275,16.642c5.421,2.997,14.675,5.68,24.206,6.117v13.484
		h14.076v-14.669c16.333-2.693,25.126-13.449,25.126-26.112c-0.038-12.898-6.707-20.71-23.613-26.705
		c-12.225-4.411-17.167-7.524-17.167-12.037c0-3.974,2.973-8.09,12.234-8.09c10.238,0,16.887,3.25,20.456,4.933l4.21-16.049
		c-4.985-2.256-11.325-4.433-20.719-4.736v-12.498H149.09z M391.08,465.865c-0.038,16.098-52.166,29.336-116.488,29.336
		c-6.837,0-13.465-0.091-19.931-0.461c1.077,5.792,1.644,11.664,1.644,17.76c0,2.021,0.039,3.899-0.197,5.92
		c6.972,0.27,13.196,0.329,18.484,0.329c29.096,0,84.898-2.455,116.488-19.799V465.865L391.08,465.865z M391.08,503.094
		c-0.038,16.098-52.166,29.336-116.488,29.336c-6.971,0-13.725-0.155-20.325-0.526c-1.517,8.252-4.226,16.043-7.763,23.352
		c10.609,0.572,20.308,0.723,28.088,0.723c29.096,0,84.898-2.455,116.488-19.799V503.094L391.08,503.094z M391.08,540.455
		c-0.038,16.132-52.166,29.271-116.488,29.271c-12.494,0-24.536-0.439-35.717-1.382c-5.625,8.251-12.611,15.577-20.391,21.706
		c21.217,2.728,41.861,3.289,56.107,3.289c29.096,0,84.898-2.488,116.488-19.799V540.455L391.08,540.455z"/>
</g>
</svg>
