<?xml version="1.0" encoding="utf-8"?>
<!-- Generator: Adobe Illustrator 16.0.0, SVG Export Plug-In . SVG Version: 6.00 Build 0)  -->
<!DOCTYPE svg PUBLIC "-//W3C//DTD SVG 1.1//EN" "http://www.w3.org/Graphics/SVG/1.1/DTD/svg11.dtd">
<svg version="1.1" id="Layer_1" xmlns="http://www.w3.org/2000/svg" xmlns:xlink="http://www.w3.org/1999/xlink" x="0px" y="0px"
	 width="307.32px" height="172.81px" viewBox="0 0 307.32 172.81" enable-background="new 0 0 307.32 172.81" xml:space="preserve">
<g transform="translate(0,-952.36218)">
	<path fill="#ED3529" d="M153.26,952.371c-1.026,0.038-2.039,0.241-3,0.6l-144,54.4c-4.971,1.847-7.503,7.373-5.657,12.343
		c0.973,2.619,3.038,4.684,5.657,5.657l16.2,6.1v30.801c-1.995,2.257-3.2,5.25-3.2,8.499c0,7.069,5.731,12.8,12.8,12.8
		s12.8-5.73,12.8-12.8c0-3.249-1.205-6.242-3.2-8.499v-23.501l15.5,5.9l-2.7,38.2c-0.597,8.36,4.553,14.226,10.2,18.8
		c5.647,4.573,12.987,8.48,21.8,11.899c17.625,6.839,41.179,11.601,67.2,11.601c26.021,0,49.574-4.762,67.2-11.601
		c8.813-3.419,16.153-7.326,21.8-11.899s10.797-10.438,10.2-18.8l-2.7-38.3l50.9-19.2c4.97-1.847,7.503-7.373,5.656-12.343
		c-0.973-2.619-3.038-4.684-5.656-5.657l-144-54.4C155.848,952.517,154.555,952.313,153.26,952.371L153.26,952.371z M153.66,972.271
		l116.8,44.1l-116.8,44.1l-116.8-44.1L153.66,972.271z M231.359,1051.672l2.201,31.899c-0.112-0.159-0.52,1.191-3,3.201
		c-3.308,2.679-9.099,5.988-16.6,8.899c-15.005,5.821-36.684,10.3-60.301,10.3c-23.618,0-45.296-4.479-60.3-10.3
		c-7.501-2.911-13.292-6.221-16.6-8.899c-2.481-2.01-2.887-3.361-3-3.201l2.201-31.799l74.3,28c2.191,0.829,4.609,0.829,6.8,0
		L231.359,1051.672z"/>
</g>
</svg>
