<?xml version="1.0" encoding="utf-8"?>
<!-- Generator: Adobe Illustrator 16.0.0, SVG Export Plug-In . SVG Version: 6.00 Build 0)  -->
<!DOCTYPE svg PUBLIC "-//W3C//DTD SVG 1.1//EN" "http://www.w3.org/Graphics/SVG/1.1/DTD/svg11.dtd">
<svg version="1.1" id="Layer_1" xmlns="http://www.w3.org/2000/svg" xmlns:xlink="http://www.w3.org/1999/xlink" x="0px" y="0px"
	 width="240px" height="266.667px" viewBox="0 0 240 266.667" enable-background="new 0 0 240 266.667" xml:space="preserve">
<g>
	<g>
		<path fill="#ED3529" d="M133.334,14.2V0h-26.667v14.2C46.76,21.614,0,78.16,0,146.667h26.667c0-7.361,5.987-13.334,13.333-13.334
			s13.333,5.973,13.333,13.334H80c0-7.361,5.987-13.334,13.333-13.334s13.333,5.973,13.333,13.334v80
			c0,7.359-5.986,13.332-13.333,13.332S80,234.027,80,226.667H53.333c0,22.053,17.946,40,40,40c22.053,0,40-17.947,40-40v-80
			c0-7.361,5.986-13.334,13.332-13.334c7.348,0,13.334,5.973,13.334,13.334h26.666c0-7.361,5.987-13.334,13.334-13.334
			s13.334,5.973,13.334,13.334H240C240,78.16,193.24,21.614,133.334,14.2z M173.334,116.88c-7.08-6.347-16.428-10.213-26.668-10.213
			c-10.239,0-19.586,3.867-26.666,10.213c-7.08-6.347-16.427-10.213-26.667-10.213c-10.24,0-19.587,3.867-26.667,10.213
			c-8.667-7.76-21.453-11.64-33.387-9.653C47.027,67.88,80.72,40,120,40c39.279,0,72.973,27.88,86.721,67.227
			C194.746,105.24,182,109.12,173.334,116.88z"/>
		<polygon fill="#ED3529" points="200,186.667 173.334,186.667 173.334,200 160,200 160,226.667 173.334,226.667 173.334,240 
			200,240 200,226.667 213.334,226.667 213.334,200 200,200 		"/>
	</g>
</g>
</svg>
