<?xml version="1.0" encoding="utf-8"?>
<!-- Generator: Adobe Illustrator 16.0.0, SVG Export Plug-In . SVG Version: 6.00 Build 0)  -->
<!DOCTYPE svg PUBLIC "-//W3C//DTD SVG 1.1//EN" "http://www.w3.org/Graphics/SVG/1.1/DTD/svg11.dtd">
<svg version="1.1" id="Layer_1" xmlns="http://www.w3.org/2000/svg" xmlns:xlink="http://www.w3.org/1999/xlink" x="0px" y="0px"
	 width="320px" height="280px" viewBox="0 0 320 280" enable-background="new 0 0 320 280" xml:space="preserve">
<path fill="#ED3529" d="M0,132.857V280h308.571V84.286h-34.286v90l-91.428-41.428v41.428l-91.429-41.428v41.428L0,132.857z M240,210
	h34.285v32.857H240V210z M171.429,210h34.286v32.857h-34.286V210z M102.857,210h34.286v32.857h-34.286V210z M34.286,210h34.286
	v32.857H34.286V210z"/>
<path fill="#ED3529" d="M221.429,35.714c-1.429,1.429-2.857,4.286-2.857,5.714C220,50,230,57.143,242.857,57.143h1.428
	c1.43,7.143,10,11.428,20,11.428c8.572,0,17.144-4.286,20-10c1.43,0,1.43,0,2.857,0c12.857,0,24.286-7.143,24.286-15.714
	c0,0,0,0,0-1.429C317.143,40,320,34.286,320,30s-2.857-8.571-7.143-11.429l0,0c0-10-10-18.571-22.857-18.571
	c-7.143,0-12.857,2.857-17.143,5.714c-4.286-1.429-8.572-2.857-12.857-2.857c-10,0-18.571,4.286-22.857,8.571
	c-11.428,0-20,5.714-20,12.857C215.715,30,218.571,32.857,221.429,35.714z"/>
</svg>
