<?xml version="1.0" encoding="utf-8"?>
<!-- Generator: Adobe Illustrator 16.0.0, SVG Export Plug-In . SVG Version: 6.00 Build 0)  -->
<!DOCTYPE svg PUBLIC "-//W3C//DTD SVG 1.1//EN" "http://www.w3.org/Graphics/SVG/1.1/DTD/svg11.dtd">
<svg version="1.1" id="Layer_1" xmlns="http://www.w3.org/2000/svg" xmlns:xlink="http://www.w3.org/1999/xlink" x="0px" y="0px"
	 width="291.227px" height="303.6px" viewBox="0 0 291.227 303.6" enable-background="new 0 0 291.227 303.6" xml:space="preserve">
<g>
	<path fill="#EE3329" d="M288.027,275.439h-14.72v-17.92c0-1.6-1.28-2.56-2.561-2.56H20.187c-1.6,0-2.56,1.28-2.56,2.56v17.92H2.907
		c-1.6,0-2.56,1.28-2.56,2.561v23.04c0,1.6,1.28,2.56,2.56,2.56h285.76c1.6,0,2.56-1.279,2.56-2.56V278
		C290.907,276.72,289.627,275.439,288.027,275.439z"/>
	<path fill="#EE3329" d="M5.147,101.68h280.32c2.88,0,5.439-2.24,5.439-5.439v-9.28c0-2.56-1.6-5.12-3.84-6.4L149.788,1.2
		c-2.881-1.601-6.08-1.601-8.961,0L3.867,80.56c-2.24,1.28-3.84,3.521-3.84,6.4v9.28C-0.293,99.439,2.267,101.68,5.147,101.68z
		 M145.307,40.88c7.68,0,13.76,6.08,13.76,13.76c0,7.681-6.08,13.761-13.76,13.761s-13.76-6.08-13.76-13.761
		C131.547,46.96,137.627,40.88,145.307,40.88z"/>
	<path fill="#EE3329" d="M62.747,121.84c1.6,0,2.56-1.28,2.56-2.56v-8.32c0-1.6-1.28-2.56-2.56-2.56h-28.48
		c-1.6,0-2.56,1.279-2.56,2.56v8.32c0,1.6,1.28,2.56,2.56,2.56h3.52V234.8h-3.52c-1.6,0-2.56,1.28-2.56,2.561v8.319
		c0,1.601,1.28,2.561,2.56,2.561h28.48c1.6,0,2.56-1.28,2.56-2.561v-8.319c0-1.601-1.28-2.561-2.56-2.561h-3.52V121.84H62.747
		L62.747,121.84z"/>
	<path fill="#EE3329" d="M256.027,121.84c1.601,0,2.56-1.28,2.56-2.56v-8.32c0-1.6-1.279-2.56-2.56-2.56h-28.479
		c-1.601,0-2.561,1.279-2.561,2.56v8.32c0,1.6,1.28,2.56,2.561,2.56h3.52V234.8h-3.52c-1.601,0-2.561,1.28-2.561,2.561v8.319
		c0,1.601,1.28,2.561,2.561,2.561h28.479c1.601,0,2.56-1.28,2.56-2.561v-8.319c0-1.601-1.279-2.561-2.56-2.561h-3.52V121.84H256.027
		L256.027,121.84z"/>
	<path fill="#EE3329" d="M207.708,121.84c1.6,0,2.56-1.28,2.56-2.56v-8.32c0-1.6-1.28-2.56-2.56-2.56h-28.48
		c-1.6,0-2.561,1.279-2.561,2.56v8.32c0,1.6,1.281,2.56,2.561,2.56h3.52V234.8h-3.52c-1.6,0-2.561,1.28-2.561,2.561v8.319
		c0,1.601,1.281,2.561,2.561,2.561h28.48c1.6,0,2.56-1.28,2.56-2.561v-8.319c0-1.601-1.28-2.561-2.56-2.561h-3.521V121.84H207.708
		L207.708,121.84z"/>
	<path fill="#EE3329" d="M159.387,121.84c1.6,0,2.561-1.28,2.561-2.56v-8.32c0-1.6-1.281-2.56-2.561-2.56h-28.48
		c-1.6,0-2.56,1.279-2.56,2.56v8.32c0,1.6,1.28,2.56,2.56,2.56h3.52V234.8h-3.52c-1.6,0-2.56,1.28-2.56,2.561v8.319
		c0,1.601,1.28,2.561,2.56,2.561h28.48c1.6,0,2.561-1.28,2.561-2.561v-8.319c0-1.601-1.281-2.561-2.561-2.561h-3.52V121.84H159.387
		L159.387,121.84z"/>
	<path fill="#EE3329" d="M111.067,121.84c1.6,0,2.56-1.28,2.56-2.56v-8.32c0-1.6-1.28-2.56-2.56-2.56h-28.48
		c-1.6,0-2.56,1.279-2.56,2.56v8.32c0,1.6,1.28,2.56,2.56,2.56h3.52V234.8h-3.52c-1.6,0-2.56,1.28-2.56,2.561v8.319
		c0,1.601,1.28,2.561,2.56,2.561h28.48c1.6,0,2.56-1.28,2.56-2.561v-8.319c0-1.601-1.28-2.561-2.56-2.561h-3.52V121.84H111.067
		L111.067,121.84z"/>
</g>
</svg>
