<?xml version="1.0" encoding="utf-8"?>
<!-- Generator: Adobe Illustrator 16.0.0, SVG Export Plug-In . SVG Version: 6.00 Build 0)  -->
<!DOCTYPE svg PUBLIC "-//W3C//DTD SVG 1.1//EN" "http://www.w3.org/Graphics/SVG/1.1/DTD/svg11.dtd">
<svg version="1.1" id="Layer_1" xmlns="http://www.w3.org/2000/svg" xmlns:xlink="http://www.w3.org/1999/xlink" x="0px" y="0px"
	 width="179.84px" height="196.801px" viewBox="0 0 179.84 196.801" enable-background="new 0 0 179.84 196.801"
	 xml:space="preserve">
<path fill="#EE3429" d="M89.92,163.84c0,0,57.6-41.92,57.6-106.24c0-32-25.92-57.6-57.6-57.6c-31.68,0-57.6,25.92-57.6,57.6
	C32.32,121.92,89.92,163.84,89.92,163.84z M57.28,62.4c0-17.92,14.72-32.64,32.64-32.64s32.641,14.72,32.641,32.64
	S107.84,95.04,89.92,95.04S57.28,80.32,57.28,62.4z M179.84,164.48c0,21.119-45.439,32.32-89.92,32.32
	C45.12,196.801,0,185.6,0,164.48c0-15.04,23.36-25.28,53.12-29.44c2.24,3.2,4.48,6.08,6.72,8.64C28.16,147.52,9.6,157.12,9.6,164.48
	c0,9.6,30.72,22.72,80.32,22.72c49.6,0,80.32-13.12,80.32-22.72c0-7.36-18.561-16.961-50.24-20.801c2.24-2.879,4.48-5.76,6.72-8.64
	C156.48,139.2,179.84,149.12,179.84,164.48z"/>
</svg>
