<?xml version="1.0" encoding="utf-8"?>
<!-- Generator: Adobe Illustrator 16.0.0, SVG Export Plug-In . SVG Version: 6.00 Build 0)  -->
<!DOCTYPE svg PUBLIC "-//W3C//DTD SVG 1.1//EN" "http://www.w3.org/Graphics/SVG/1.1/DTD/svg11.dtd">
<svg version="1.1" id="Layer_1" xmlns="http://www.w3.org/2000/svg" xmlns:xlink="http://www.w3.org/1999/xlink" x="0px" y="0px"
	 width="177.152px" height="186.561px" viewBox="0 0 177.152 186.561" enable-background="new 0 0 177.152 186.561"
	 xml:space="preserve">
<path fill="#FFFFFF" d="M164.192,63.072l4.032-2.016l8.928-4.48l-4.48-8.928c-7.072-14.08-17.855-25.984-31.232-34.4
	C127.713,4.608,111.809,0,95.488,0h-9.984v13.952c-11.36,0.096-22.4,2.368-32.8,6.784c-10.272,4.352-19.52,10.56-27.424,18.496
	c-7.936,7.936-14.144,17.152-18.496,27.424C2.272,77.312,0,88.608,0,100.256c0,11.648,2.272,22.944,6.784,33.6
	c4.352,10.273,10.56,19.521,18.496,27.424c7.936,7.938,17.152,14.145,27.424,18.496c10.656,4.514,21.952,6.785,33.6,6.785
	s22.944-2.271,33.6-6.785c10.271-4.352,19.52-10.559,27.424-18.496c7.904-7.936,14.145-17.15,18.496-27.424
	c4.512-10.655,6.784-21.951,6.784-33.6c0-6.816-0.8-13.6-2.368-20.16C168.832,74.24,166.816,68.512,164.192,63.072z M86.304,176.607
	c-42.144,0-76.32-34.176-76.32-76.319c0-41.888,33.76-75.904,75.52-76.32v78.528l14.431-7.232l55.328-27.711
	c4.736,9.92,7.36,21.024,7.36,32.736C162.656,142.432,128.48,176.607,86.304,176.607z"/>
</svg>
