<?xml version="1.0" encoding="utf-8"?>
<!-- Generator: Adobe Illustrator 16.0.0, SVG Export Plug-In . SVG Version: 6.00 Build 0)  -->
<!DOCTYPE svg PUBLIC "-//W3C//DTD SVG 1.1//EN" "http://www.w3.org/Graphics/SVG/1.1/DTD/svg11.dtd">
<svg version="1.1" id="Layer_1" xmlns="http://www.w3.org/2000/svg" xmlns:xlink="http://www.w3.org/1999/xlink" x="0px" y="0px"
	 width="300.8px" height="300.8px" viewBox="0 0 300.8 300.8" enable-background="new 0 0 300.8 300.8" xml:space="preserve">
<g>
	<path fill="#EE3429" d="M150.4,0C67.52,0,0,67.52,0,150.4s67.52,150.4,150.4,150.4s150.4-67.521,150.4-150.4S233.28,0,150.4,0z
		 M150.4,280.32c-71.68,0-129.92-58.24-129.92-129.92c0-71.68,58.24-129.92,129.92-129.92c71.68,0,129.92,58.24,129.92,129.92
		C280.32,222.08,222.08,280.32,150.4,280.32z"/>
	<polygon fill="#EE3429" points="152.32,72.32 131.84,72.32 131.84,169.919 212.8,169.919 212.8,149.44 152.32,149.44 	"/>
</g>
</svg>
