<?xml version="1.0" encoding="utf-8"?>
<!-- Generator: Adobe Illustrator 16.0.0, SVG Export Plug-In . SVG Version: 6.00 Build 0)  -->
<!DOCTYPE svg PUBLIC "-//W3C//DTD SVG 1.1//EN" "http://www.w3.org/Graphics/SVG/1.1/DTD/svg11.dtd">
<svg version="1.1" id="Layer_1" xmlns="http://www.w3.org/2000/svg" xmlns:xlink="http://www.w3.org/1999/xlink" x="0px" y="0px"
	 width="319.663px" height="320px" viewBox="0 80 319.663 320" enable-background="new 0 80 319.663 320" xml:space="preserve">
<g>
	<rect x="16.168" y="96.168" fill="none" width="288" height="288"/>
</g>
<path fill="#FFFFFF" d="M271.832,400H159.663c-26.61,0-47.832-21.559-47.832-47.832s21.558-47.831,47.832-47.831h111.831
	c26.611,0,47.832,21.558,47.832,47.831S298.105,400,271.832,400z M159.663,336c-8.758,0-15.832,7.074-15.832,15.832
	s7.074,15.831,15.832,15.831h111.831c8.758,0,15.832-7.073,15.832-15.831S280.252,336,271.494,336H159.663z"/>
<path fill="#FFFFFF" d="M48.168,400C21.558,400,0,378.441,0,351.832C0,325.221,21.558,304,47.832,304
	c26.274,0,47.832,21.559,47.832,47.832S74.442,400,48.168,400z M48.168,336c-8.758,0-15.832,7.074-15.832,15.832
	s7.074,15.831,15.832,15.831S64,360.59,64,351.832S56.926,336,48.168,336z"/>
<path fill="#FFFFFF" d="M271.832,176H159.663c-26.61,0-47.832-21.558-47.832-47.832c0-26.274,21.558-48.168,47.832-48.168h111.831
	c26.611,0,47.832,21.558,47.832,47.832C319.326,154.105,298.105,176,271.832,176z M159.663,112c-8.758,0-15.832,7.074-15.832,15.832
	s7.074,15.832,15.832,15.832h111.831c8.758,0,15.832-7.074,15.832-15.832S280.252,112,271.494,112H159.663z"/>
<path fill="#FFFFFF" d="M48.168,176C21.558,176,0,154.442,0,128.168C0,101.895,21.558,80,48.168,80S96,101.558,96,127.832
	C96,154.105,74.442,176,48.168,176z M48.168,112c-8.758,0-15.832,7.074-15.832,15.832s7.074,15.832,15.832,15.832
	S64,136.589,64,127.832S56.926,112,48.168,112z"/>
<path fill="#FFFFFF" d="M271.832,288.168H160c-26.61,0-47.832-21.558-47.832-47.831c0-26.61,21.558-47.832,47.832-47.832h111.832
	c26.609,0,47.831,21.558,47.831,47.832C319.663,266.61,298.441,288.168,271.832,288.168z M160,224.168
	c-8.758,0-15.832,7.074-15.832,15.832s7.074,15.832,15.832,15.832h111.832c8.758,0,15.831-7.074,15.831-15.832
	s-7.073-15.832-15.831-15.832H160z"/>
<path fill="#FFFFFF" d="M48.168,287.832C21.558,287.832,0,266.61,0,240s21.558-47.832,47.832-47.832
	c26.274,0,47.832,21.558,47.832,47.832C96,266.61,74.779,287.832,48.168,287.832z M48.168,223.832
	c-8.758,0-15.832,7.074-15.832,15.832s7.074,15.831,15.832,15.831S64,248.421,64,239.663S56.926,223.832,48.168,223.832z"/>
</svg>
