<?xml version="1.0" encoding="utf-8"?>
<!-- Generator: Adobe Illustrator 16.0.0, SVG Export Plug-In . SVG Version: 6.00 Build 0)  -->
<!DOCTYPE svg PUBLIC "-//W3C//DTD SVG 1.1//EN" "http://www.w3.org/Graphics/SVG/1.1/DTD/svg11.dtd">
<svg version="1.1" id="Layer_1" xmlns="http://www.w3.org/2000/svg" xmlns:xlink="http://www.w3.org/1999/xlink" x="0px" y="0px"
	 width="238.08px" height="272px" viewBox="0 0 238.08 272" enable-background="new 0 0 238.08 272" xml:space="preserve">
<path fill="#EF382A" d="M176.64,136c36.48-23.04,61.44-67.84,61.44-119.04c0-5.76-0.319-11.52-0.96-16.96H0.96
	C0.32,5.44,0,11.2,0,16.96C0,68.16,24.64,112.64,61.44,136C24.96,159.04,0,203.84,0,255.04c0,5.76,0.32,11.521,0.96,16.96h236.16
	c0.641-5.439,0.96-11.2,0.96-16.96C238.08,203.84,213.12,159.04,176.64,136z M25.6,255.04c0-49.601,21.44-91.84,59.52-105.601
	v-26.56l0,0c-38.08-13.76-59.52-56-59.52-105.6l0,0h186.879l0,0c0,49.6-21.439,91.84-59.52,105.6v26.56
	c38.08,13.761,59.52,56,59.52,105.601H25.6z M147.521,177.92c-18.881-10.88-20.16-24.96-20.16-33.279v-16.96
	c0-8.64,0.959-22.4,20.16-33.28c10.24-6.08,19.199-15.04,25.92-26.24H64.64c6.72,11.2,15.68,20.16,25.92,26.24
	c18.88,10.88,20.16,24.96,20.16,33.28v16.96c0,8.639-0.96,22.399-20.16,33.279c-19.2,11.2-33.6,33.28-38.08,60.16h133.121
	C181.44,211.2,167.04,189.12,147.521,177.92z"/>
</svg>
